<svg width="151" height="24" viewBox="0 0 151 24" fill="none" xmlns="http://www.w3.org/2000/svg">
<path d="M9.88646 1.48326C10.9222 1.4947 11.9701 1.48678 13.0067 1.48628C13.6858 1.48596 14.4113 1.50088 15.0846 1.48315C15.0893 1.74786 15.0853 2.02525 15.0854 2.29092V3.06947L16.7576 3.07037L17.6938 3.07326C17.6896 3.3409 17.6886 3.6086 17.691 3.87625L17.6938 4.77392L18.5274 4.77657C18.8021 4.77973 19.0856 4.77516 19.361 4.77392V6.5H19.7927C19.7853 7.192 19.7864 7.36801 19.7927 8.06003C20.0352 8.06585 20.2945 8.06226 20.5383 8.063L20.5354 16.1903C20.2863 16.1894 20.0372 16.1902 19.788 16.1924C19.7927 17.1233 19.7828 18.0599 19.7951 18.9899L19 19C18.9917 19.4874 18.9986 20.0113 19 20.5C18.7436 20.4991 18.7824 20.4829 18.526 20.489L17.8405 20.5V21V21.9012C17.4331 21.8918 16.9351 21.8963 16.5274 21.9016L16.5273 21.1967L15.7983 21.1941C15.7926 20.9638 15.7965 20.7147 15.7956 20.4826C15.3005 20.4865 14.8053 20.4867 14.3102 20.4837C14.3125 20.7207 14.3128 20.9577 14.3112 21.1947C14.0691 21.1997 13.8133 21.1963 13.57 21.197C13.57 21.197 12.6733 21.1982 12.8366 21.1982V21.9C13.0677 21.898 12.6056 21.8976 12.8366 21.9L12.8372 22.4853L10.6323 22.4843L10.6348 21.8986V21.1982L9.89121 21.194L9.14587 21.1946C9.15533 20.9742 9.14841 20.7061 9.1478 20.4824C8.65467 20.4866 8.16151 20.4863 7.66838 20.4815C7.67357 20.7195 7.67385 20.9576 7.66921 21.1957C7.42957 21.1992 7.18315 21.1955 6.94301 21.1948L6.94138 22.3894H4.18717C4.18178 22.1587 4.18675 21.4261 4.18717 21.1946L3.4404 21.194L3.43823 18.3011L4.18634 18.3012C4.18881 17.8182 4.1887 17.335 4.18602 16.8519C4.4358 16.8575 4.68566 16.8585 4.93548 16.8548C4.91975 16.4686 4.92949 16.0155 4.92976 15.6243L4.92962 13.5174L4.92889 6.74931C5.20162 6.75282 5.47437 6.75447 5.74711 6.75428L5.74761 4.77592C6.02888 4.77785 6.31016 4.7781 6.59144 4.77669L7.43549 4.77592L7.43422 3.87413L7.43549 3.07446L8.27309 3.06947C8.27293 3.32432 8.26373 2.81628 8.27309 3.06947C8.80452 3.06049 9.3538 3.06753 9.88646 3.06947C9.88405 2.80163 9.88525 1.7511 9.88646 1.48326Z" fill="#3D538B"/>
<path d="M9.89334 7.20166L11.3627 7.20192C11.3709 7.43564 11.3654 7.68998 11.3647 7.92521C11.6069 7.9235 11.8653 7.91735 12.1061 7.92651L12.1112 9.70668C11.8713 9.69863 11.6079 9.70105 11.3661 9.69894L11.3705 10.3132L9.88642 10.3108C9.89002 10.1076 9.89219 9.90431 9.89295 9.70103L9.15133 9.70752C9.1432 9.51182 9.15116 9.27174 9.15198 9.07142C9.15368 8.68944 9.15323 8.30744 9.15064 7.92546C9.36379 7.91186 9.66921 7.92294 9.88947 7.92611C9.88894 7.68638 9.88558 7.4408 9.89334 7.20166Z" fill="#FEFEFE"/>
<path d="M15.8076 7.20388C16.197 7.19639 16.6061 7.20335 16.9973 7.20412C16.9954 7.44491 16.9954 7.68569 16.9974 7.92647L17.7229 7.92609L17.723 9.70089L16.9933 9.69907C16.9923 9.80435 17.005 10.2175 16.9878 10.3026L16.9636 10.3117L15.803 10.3104C15.8018 10.1071 15.8034 9.90378 15.8079 9.7005C15.5678 9.70542 15.3121 9.70165 15.0709 9.7018C15.06 9.51062 15.0639 9.26582 15.0634 9.07255C15.0639 8.68979 15.0623 8.30703 15.0587 7.9243C15.2959 7.91727 15.5651 7.92415 15.8042 7.92497C15.8128 7.68138 15.8019 7.4458 15.8076 7.20388Z" fill="#FEFEFE"/>
<path d="M10.6228 11.799C10.8589 11.7933 11.1236 11.7995 11.3615 11.8004L11.3701 12.5246C11.6159 12.5266 11.8616 12.5273 12.1074 12.5267C12.1091 12.6619 12.1041 12.8082 12.1017 12.9444L15.0645 12.9425C15.0613 12.8031 15.0608 12.6637 15.0633 12.5244C15.2974 12.5247 15.5701 12.5186 15.8009 12.5317C15.7998 12.7736 15.8027 13.0154 15.81 13.2571L15.4546 13.2527L15.0521 13.2509C15.0594 13.4951 15.0621 13.7394 15.0603 13.9837C14.5378 13.9755 13.9991 13.9818 13.4762 13.9829C13.0208 13.9794 12.5656 13.9806 12.1103 13.987L12.1101 13.2517C11.8612 13.251 11.6123 13.2523 11.3634 13.2555C11.3734 13.0183 11.3697 12.767 11.3699 12.5288C11.1217 12.5322 10.8735 12.5322 10.6253 12.529C10.6281 12.2856 10.6273 12.0422 10.6228 11.799Z" fill="#FEFEFE"/>
<path d="M15.8044 11.8001C16.0536 11.7967 16.3027 11.7968 16.5517 11.8004C16.5526 12.0422 16.5511 12.2841 16.5475 12.5258C16.3059 12.5346 16.048 12.5305 15.805 12.5306L15.8044 11.8001Z" fill="#FEFEFE"/>
<path d="M29.02 18.24V16.44H27.2V14.42H29.22V16.24H34.46V12.8H29.02V11H27.2V7.2H29.02V5.38H34.66V7.2H36.5V9.2H34.46V7.4H29.22V10.82H34.66V12.6H36.5V16.44H34.66V18.24H29.02ZM38.9188 18.24V5.38H40.9388V10.82H42.5388V9H46.3788V10.82H48.2188V18.24H46.1788V11H42.7388V12.8H40.9388V18.24H38.9188ZM52.0669 18.24V16.44H50.2469V10.82H52.0669V9H57.7069V10.82H59.5469V16.24H61.3669V18.24H59.3469V16.44H57.7069V18.24H52.0669ZM52.2669 16.24H57.5069V11H52.2669V16.24ZM64.6059 18.24V16.44H62.7859V10.82H64.6059V9H70.0659V5.38H72.0859V16.44H70.2459V18.24H64.6059ZM64.8059 16.24H70.0459V11H64.8059V16.24ZM75.9341 18.24V16.44H74.1141V10.82H75.9341V9H81.5741V10.82H83.4141V16.44H81.5741V18.24H75.9341ZM76.1341 16.24H81.3741V11H76.1341V16.24ZM85.8328 18.24V9H87.8528V16.24H91.2928V9H93.2928V16.24H96.7528V9H98.7528V16.44H96.9528V18.24H93.0928V16.44H91.4928V18.24H85.8328ZM102.594 18.24V16.44H100.774V5.38H102.794V9H108.234V10.82H110.074V16.44H108.234V18.24H102.594ZM102.794 16.24H108.034V11H102.794V16.24ZM113.922 18.24V16.44H112.102V10.82H113.922V9H119.562V10.82H121.402V16.44H119.562V18.24H113.922ZM114.122 16.24H119.362V11H114.122V16.24ZM125.641 18.24V16.44H123.821V10.82H125.641V9H131.281V10.82H133.121V16.44H131.281V18.24H125.641ZM125.841 16.24H131.081V11H125.841V16.24ZM135.54 18.24V5.38H137.56V12.6H139.16V10.82H142.8V9H144.84V11H143V12.8H139.36V14.42H143V16.24H144.84V18.24H142.8V16.44H139.16V14.62H137.56V18.24H135.54Z" fill="white"/>
</svg>
